<svg xmlns="http://www.w3.org/2000/svg" xmlns:xlink="http://www.w3.org/1999/xlink" viewBox="0 0 650 550" width="650" height="550" preserveAspectRatio="xMidYMid meet" style="width: 100%; height: 100%; transform: translate3d(0px, 0px, 0px); content-visibility: visible;">
  <defs>
    <clipPath id="__lottie_element_26">
      <rect width="650" height="550" x="0" y="0">
      </rect>
    </clipPath>
    <clipPath id="__lottie_element_201">
      <path d="M0,0 L1920,0 L1920,1920 L0,1920z">
      </path>
    </clipPath>
    <path d="" fill-opacity="1">
    </path>
    <path d="" fill-opacity="1">
    </path>
    <path d="" fill-opacity="1">
    </path>
    <path d="" fill-opacity="1">
    </path>
    <path d="" fill-opacity="1">
    </path>
    <path d="" fill-opacity="1">
    </path>
    <path d="" fill-opacity="1">
    </path>
    <path d="" fill-opacity="1">
    </path>
    <path d="" fill-opacity="1">
    </path>
    <path d="" fill-opacity="1">
    </path>
    <path d="" fill-opacity="1">
    </path>
    <path d="" fill-opacity="1">
    </path>
    <path d="" fill-opacity="1">
    </path>
    <path d="" fill-opacity="1">
    </path>
    <path d="" fill-opacity="1">
    </path>
    <path d="" fill-opacity="1">
    </path>
    <path d="" fill-opacity="1">
    </path>
    <path d="" fill-opacity="1">
    </path>
    <path d="" fill-opacity="1">
    </path>
    <filter id="__lottie_element_203">
      <feColorMatrix type="matrix" color-interpolation-filters="sRGB" values="0 0 0 0 0 0 0 0 0 0.27843138575553894 0 0 0 0 0.16078431904315948 0 0 0 1 0" result="filter_result_0">
      </feColorMatrix>
    </filter>
    <clipPath id="__lottie_element_205">
      <path d="M0,0 L1920,0 L1920,1920 L0,1920z">
      </path>
    </clipPath>
    <path d="" fill-opacity="1">
    </path>
    <filter id="__lottie_element_210">
      <feColorMatrix type="matrix" color-interpolation-filters="sRGB" values="0 0 0 0 0.2823529541492462 0 0 0 0 0.6980392336845398 0 0 0 0 0.5686274766921997 0 0 0 1 0" result="filter_result_0">
      </feColorMatrix>
    </filter>
    <mask id="__lottie_element_226" mask-type="alpha">
      <g fill="none" stroke-linecap="round" stroke-dashoffset="1" stroke="#fff" stroke-width="7" opacity="1">
        <path d=" M1011.875,1024 C1011.875,1024 1011.875,893 1011.875,893" stroke-dasharray="0 0 0 0 1 1.05 1 1.05 1 1.05 1 1.05 1 1.05 1 1.05 1 1.05 1 1.05 1 1.05 1 1.05 1 1.05 1 1.05 1 1.05 1 1.05 1 1.05 1 1.05 1 1.05 1 1.05 1 1.05 1 1.05 1 1.05 1 1.05 1 1.05 1 1.05 1 1.05 1 1.05 1 1.05 1 1.05 1 1.05 1 1.05 1 1.05 1 1.05 1 1.05 1 1.05 1 1.05 1 1.05 1 1.05 1 1.05 1 1.05 1 1.05 1 1.05 1 1.05 1 1.05 1 1.05 1 1.05 1 1.05 1 1.05 1 1.05 1 1.05 1 1.05 1 1.05 1 1.05 1 1.05 1 1.05 1 1.05 1 1.05 1 1.05 1 1.05 1 1.05 1 1.05 1 1.05 1 1.05 1 1.05 0 1310 0 0">
        </path>
      </g>
    </mask>
    <mask id="__lottie_element_227" mask-type="alpha">
      <g fill="none" stroke-linecap="round" stroke-dashoffset="1" stroke="#fff" stroke-width="8" opacity="1">
        <path d=" M1106.5,955.25 C1106.5,955.25 1106.5,981 1106.5,981" stroke-dasharray="1 1.2">
        </path>
        <path d=" M1096,954 C1096,954 1096,994.25 1096,994.25" stroke-dasharray="1 1.2">
        </path>
        <path d=" M1085.5,953 C1085.5,953 1085.5,996.75 1085.5,996.75" stroke-dasharray="1 1.2">
        </path>
        <path d=" M1075.06201171875,946 C1075.06201171875,946 1075.06201171875,1002.25 1075.06201171875,1002.25" stroke-dasharray="1 1.2">
        </path>
        <path d=" M1064.5,938.5 C1064.5,938.5 1064.5,1005.5 1064.5,1005.5" stroke-dasharray="1 1.2">
        </path>
        <path d=" M1054,920.5 C1054,920.5 1054,1009.5 1054,1009.5" stroke-dasharray="1 1.2">
        </path>
        <path d=" M1043.56201171875,904.25 C1043.56201171875,904.25 1043.56201171875,1013.25 1043.56201171875,1013.25" stroke-dasharray="1 1.2">
        </path>
        <path d=" M1033.125,893 C1033.125,893 1033.125,1026 1033.125,1026" stroke-dasharray="1 1.2">
        </path>
        <path d=" M1022.5,892.5 C1022.5,892.5 1022.5,1024.75 1022.5,1024.75" stroke-dasharray="1 1.2">
        </path>
        <path d=" M1012,892.5 C1012,892.5 1012,892.5 1012,892.5" stroke-dasharray="1 1.2">
        </path>
        <path d=" M1001.43798828125,880.875 C1001.43798828125,880.875 1001.43798828125,1028.75 1001.43798828125,1028.75" stroke-dasharray="1 1.2">
        </path>
        <path d=" M991,874.25 C991,874.25 991,1022 991,1022" stroke-dasharray="1 1.2">
        </path>
        <path d=" M980.5,861 C980.5,861 980.5,984 980.5,984" stroke-dasharray="1 1.2">
        </path>
        <path d=" M970.06201171875,850.5 C970.06201171875,850.5 970.06201171875,987.5 970.06201171875,987.5" stroke-dasharray="1 1.2">
        </path>
        <path d=" M959.125,852.5 C959.125,852.5 959.125,970.5 959.125,970.5" stroke-dasharray="1 1.2">
        </path>
        <path d=" M949,860.25 C949,860.25 949,951.875 949,951.875" stroke-dasharray="1 1.2">
        </path>
        <path d=" M938.5,864.125 C938.5,864.125 938.5,934.875 938.5,934.875" stroke-dasharray="1 1.2">
        </path>
        <path d=" M927.875,887.5 C927.875,887.5 927.875,918 927.875,918" stroke-dasharray="1 1.2">
        </path>
        <path d=" M917.5,887.31201171875 C917.5,887.31201171875 917.5,906.81201171875 917.5,906.81201171875" stroke-dasharray="1 1.2">
        </path>
      </g>
    </mask>
  </defs>
  <g clip-path="url(#__lottie_element_26)">
    <g clip-path="url(#__lottie_element_201)" filter="url(#__lottie_element_203)" style="display: block;" transform="matrix(1.3361998796463013,0,0,1.3361998796463013,-1159.5518798828125,-979.8018798828125)" opacity="1">
      <g mask="url(#__lottie_element_227)">
        <g style="display: block;" transform="matrix(1,0,0,1,0,0)" opacity="1">
          <g opacity="1" transform="matrix(1,0,0,1,1022.43701171875,935.56201171875)">
            <path fill="rgb(255,255,255)" fill-opacity="1" d=" M0,-16.327999114990234 C-0.9990000128746033,-16.327999114990234 -1.8109999895095825,-15.517000198364258 -1.8109999895095825,-14.517999649047852 C-1.8109999895095825,-14.517999649047852 -1.8109999895095825,14.515999794006348 -1.8109999895095825,14.515999794006348 C-1.8109999895095825,15.515999794006348 -0.9990000128746033,16.327999114990234 0,16.327999114990234 C0.9990000128746033,16.327999114990234 1.8109999895095825,15.515999794006348 1.8109999895095825,14.515999794006348 C1.8109999895095825,14.515999794006348 1.8109999895095825,-14.517999649047852 1.8109999895095825,-14.517999649047852 C1.8109999895095825,-15.517000198364258 0.9990000128746033,-16.327999114990234 0,-16.327999114990234z">
            </path>
          </g>
          <g opacity="1" transform="matrix(1,0,0,1,1053.93603515625,982.2249755859375)">
            <path fill="rgb(255,255,255)" fill-opacity="1" d=" M-0.0010000000474974513,-23.385000228881836 C-1.0010000467300415,-23.385000228881836 -1.812000036239624,-22.57200050354004 -1.812000036239624,-21.572999954223633 C-1.812000036239624,-21.572999954223633 -1.812000036239624,21.572999954223633 -1.812000036239624,21.572999954223633 C-1.812000036239624,22.572999954223633 -1.0010000467300415,23.385000228881836 -0.0010000000474974513,23.385000228881836 C0.9990000128746033,23.385000228881836 1.812000036239624,22.572999954223633 1.812000036239624,21.572999954223633 C1.812000036239624,21.572999954223633 1.812000036239624,-21.572999954223633 1.812000036239624,-21.572999954223633 C1.812000036239624,-22.57200050354004 0.9990000128746033,-23.385000228881836 -0.0010000000474974513,-23.385000228881836z">
            </path>
          </g>
          <g opacity="1" transform="matrix(1,0,0,1,1043.43505859375,989.197021484375)">
            <path fill="rgb(255,255,255)" fill-opacity="1" d=" M0.0010000000474974513,-20.733999252319336 C-0.9980000257492065,-20.733999252319336 -1.812000036239624,-19.92300033569336 -1.812000036239624,-18.923999786376953 C-1.812000036239624,-18.923999786376953 -1.812000036239624,18.923999786376953 -1.812000036239624,18.923999786376953 C-1.812000036239624,19.92300033569336 -0.9980000257492065,20.733999252319336 0.0010000000474974513,20.733999252319336 C1.0010000467300415,20.733999252319336 1.812000036239624,19.92300033569336 1.812000036239624,18.923999786376953 C1.812000036239624,18.923999786376953 1.812000036239624,-18.923999786376953 1.812000036239624,-18.923999786376953 C1.812000036239624,-19.92300033569336 1.0010000467300415,-20.733999252319336 0.0010000000474974513,-20.733999252319336z">
            </path>
          </g>
          <g opacity="1" transform="matrix(1,0,0,1,1032.93505859375,997.5910034179688)">
            <path fill="rgb(255,255,255)" fill-opacity="1" d=" M0,-25.549999237060547 C-0.9990000128746033,-25.549999237060547 -1.8109999895095825,-24.73900032043457 -1.8109999895095825,-23.739999771118164 C-1.8109999895095825,-23.739999771118164 -1.8109999895095825,23.739999771118164 -1.8109999895095825,23.739999771118164 C-1.8109999895095825,24.73900032043457 -0.9980000257492065,25.551000595092773 0.0020000000949949026,25.551000595092773 C1,25.551000595092773 1.8109999895095825,24.73900032043457 1.8109999895095825,23.739999771118164 C1.8109999895095825,23.739999771118164 1.8109999895095825,-23.739999771118164 1.8109999895095825,-23.739999771118164 C1.8109999895095825,-24.73900032043457 1,-25.549999237060547 0,-25.549999237060547z">
            </path>
          </g>
          <g opacity="1" transform="matrix(1,0,0,1,1022.43701171875,994.9749755859375)">
            <path fill="rgb(255,255,255)" fill-opacity="1" d=" M0,-26.117000579833984 C-0.9990000128746033,-26.117000579833984 -1.8109999895095825,-25.30500030517578 -1.8109999895095825,-24.305999755859375 C-1.8109999895095825,-24.305999755859375 -1.8109999895095825,24.30500030517578 -1.8109999895095825,24.30500030517578 C-1.8109999895095825,25.30500030517578 -0.9990000128746033,26.117000579833984 0,26.117000579833984 C0.9990000128746033,26.117000579833984 1.8109999895095825,25.30500030517578 1.8109999895095825,24.30500030517578 C1.8109999895095825,24.30500030517578 1.8109999895095825,-24.305999755859375 1.8109999895095825,-24.305999755859375 C1.8109999895095825,-25.30500030517578 0.9990000128746033,-26.117000579833984 0,-26.117000579833984z">
            </path>
          </g>
          <g opacity="1" transform="matrix(1,0,0,1,980.4390258789062,961.2349853515625)">
            <path fill="rgb(255,255,255)" fill-opacity="1" d=" M-0.0010000000474974513,-19.073999404907227 C-1.0010000467300415,-19.073999404907227 -1.812000036239624,-18.260000228881836 -1.812000036239624,-17.26099967956543 C-1.812000036239624,-17.26099967956543 -1.812000036239624,17.26300048828125 -1.812000036239624,17.26300048828125 C-1.812000036239624,18.261999130249023 -1.0010000467300415,19.073999404907227 -0.0010000000474974513,19.073999404907227 C0.9980000257492065,19.073999404907227 1.812000036239624,18.261999130249023 1.812000036239624,17.26300048828125 C1.812000036239624,17.26300048828125 1.812000036239624,-17.26099967956543 1.812000036239624,-17.26099967956543 C1.812000036239624,-18.260000228881836 0.9980000257492065,-19.073999404907227 -0.0010000000474974513,-19.073999404907227z">
            </path>
          </g>
          <g opacity="1" transform="matrix(1,0,0,1,990.93701171875,962.7080078125)">
            <path fill="rgb(255,255,255)" fill-opacity="1" d=" M0.0010000000474974513,-17.600000381469727 C-0.9980000257492065,-17.600000381469727 -1.812000036239624,-16.788000106811523 -1.812000036239624,-15.788999557495117 C-1.812000036239624,-15.788999557495117 -1.812000036239624,15.789999961853027 -1.812000036239624,15.789999961853027 C-1.812000036239624,16.790000915527344 -0.9980000257492065,17.60099983215332 0.0010000000474974513,17.60099983215332 C1,17.60099983215332 1.812000036239624,16.790000915527344 1.812000036239624,15.789999961853027 C1.812000036239624,15.789999961853027 1.812000036239624,-15.788999557495117 1.812000036239624,-15.788999557495117 C1.812000036239624,-16.788000106811523 1,-17.600000381469727 0.0010000000474974513,-17.600000381469727z">
            </path>
          </g>
          <g opacity="1" transform="matrix(1,0,0,1,990.93701171875,1007.8319702148438)">
            <path fill="rgb(255,255,255)" fill-opacity="1" d=" M0.0010000000474974513,-10.067999839782715 C-0.9980000257492065,-10.067999839782715 -1.812000036239624,-9.255999565124512 -1.812000036239624,-8.256999969482422 C-1.812000036239624,-8.256999969482422 -1.812000036239624,8.256999969482422 -1.812000036239624,8.256999969482422 C-1.812000036239624,9.255999565124512 -0.9980000257492065,10.067999839782715 0.0010000000474974513,10.067999839782715 C1,10.067999839782715 1.812000036239624,9.255999565124512 1.812000036239624,8.256999969482422 C1.812000036239624,8.256999969482422 1.812000036239624,-8.256999969482422 1.812000036239624,-8.256999969482422 C1.812000036239624,-9.255999565124512 1,-10.067999839782715 0.0010000000474974513,-10.067999839782715z">
            </path>
          </g>
          <g opacity="1" transform="matrix(1,0,0,1,1001.43701171875,968.9340209960938)">
            <path fill="rgb(255,255,255)" fill-opacity="1" d=" M0,23.82699966430664 C0.9990000128746033,23.82699966430664 1.8109999895095825,23.014999389648438 1.8109999895095825,22.016000747680664 C1.8109999895095825,22.016000747680664 1.8109999895095825,-22.014999389648438 1.8109999895095825,-22.014999389648438 C1.8109999895095825,-23.014999389648438 0.9990000128746033,-23.82699966430664 0,-23.82699966430664 C-0.9990000128746033,-23.82699966430664 -1.8109999895095825,-23.014999389648438 -1.8109999895095825,-22.014999389648438 C-1.8109999895095825,-22.014999389648438 -1.8109999895095825,22.016000747680664 -1.8109999895095825,22.016000747680664 C-1.8109999895095825,23.014999389648438 -0.9990000128746033,23.82699966430664 0,23.82699966430664z">
            </path>
          </g>
          <g opacity="1" transform="matrix(1,0,0,1,1001.4359741210938,1012.6640014648438)">
            <path fill="rgb(255,255,255)" fill-opacity="1" d=" M-0.02199999988079071,-13.07800006866455 C-1.0210000276565552,-13.07800006866455 -1.8350000381469727,-12.267000198364258 -1.8350000381469727,-11.265999794006348 C-1.8350000381469727,-11.265999794006348 -1.7860000133514404,11.267999649047852 -1.7860000133514404,11.267999649047852 C-1.7860000133514404,12.267000198364258 -0.9850000143051147,13.07800006866455 0,13.07800006866455 C1.0140000581741333,13.07800006866455 1.8359999656677246,12.265999794006348 1.8359999656677246,11.265999794006348 C1.8359999656677246,11.265999794006348 1.7890000343322754,-11.267999649047852 1.7890000343322754,-11.267999649047852 C1.7890000343322754,-12.267000198364258 0.9769999980926514,-13.07800006866455 -0.02199999988079071,-13.07800006866455z">
            </path>
          </g>
          <g opacity="1" transform="matrix(1,0,0,1,927.9409790039062,902.75)">
            <path fill="rgb(255,255,255)" fill-opacity="1" d=" M-0.0010000000474974513,-12.362000465393066 C-1,-12.362000465393066 -1.812000036239624,-11.548999786376953 -1.812000036239624,-10.550000190734863 C-1.812000036239624,-10.550000190734863 -1.812000036239624,10.548999786376953 -1.812000036239624,10.548999786376953 C-1.812000036239624,11.548999786376953 -1,12.362000465393066 -0.0010000000474974513,12.362000465393066 C0.9990000128746033,12.362000465393066 1.812000036239624,11.548999786376953 1.812000036239624,10.548999786376953 C1.812000036239624,10.548999786376953 1.812000036239624,-10.550000190734863 1.812000036239624,-10.550000190734863 C1.812000036239624,-11.548999786376953 0.9990000128746033,-12.362000465393066 -0.0010000000474974513,-12.362000465393066z">
            </path>
          </g>
          <g opacity="1" transform="matrix(1,0,0,1,917.4420166015625,897.2949829101562)">
            <path fill="rgb(255,255,255)" fill-opacity="1" d=" M0,-6.906000137329102 C-1,-6.906000137329102 -1.8109999895095825,-6.093999862670898 -1.8109999895095825,-5.09499979019165 C-1.8109999895095825,-5.09499979019165 -1.8109999895095825,5.093999862670898 -1.8109999895095825,5.093999862670898 C-1.8109999895095825,6.093999862670898 -1,6.906000137329102 0,6.906000137329102 C0.9990000128746033,6.906000137329102 1.8109999895095825,6.093999862670898 1.8109999895095825,5.093999862670898 C1.8109999895095825,5.093999862670898 1.8109999895095825,-5.09499979019165 1.8109999895095825,-5.09499979019165 C1.8109999895095825,-6.093999862670898 0.9990000128746033,-6.906000137329102 0,-6.906000137329102z">
            </path>
          </g>
          <g opacity="1" transform="matrix(1,0,0,1,938.4409790039062,911.02197265625)">
            <path fill="rgb(255,255,255)" fill-opacity="1" d=" M0,-20.632999420166016 C-0.9990000128746033,-20.632999420166016 -1.8109999895095825,-19.820999145507812 -1.8109999895095825,-18.82200050354004 C-1.8109999895095825,-18.82200050354004 -1.8109999895095825,18.822999954223633 -1.8109999895095825,18.822999954223633 C-1.8109999895095825,19.822999954223633 -0.9990000128746033,20.632999420166016 0,20.632999420166016 C0.9990000128746033,20.632999420166016 1.8109999895095825,19.822999954223633 1.8109999895095825,18.822999954223633 C1.8109999895095825,18.822999954223633 1.8109999895095825,-18.82200050354004 1.8109999895095825,-18.82200050354004 C1.8109999895095825,-19.820999145507812 0.9990000128746033,-20.632999420166016 0,-20.632999420166016z">
            </path>
          </g>
          <g opacity="1" transform="matrix(1,0,0,1,948.9390258789062,906.551025390625)">
            <path fill="rgb(255,255,255)" fill-opacity="1" d=" M0,-42.03099822998047 C-0.9990000128746033,-42.03099822998047 -1.8109999895095825,-41.21799850463867 -1.8109999895095825,-40.21900177001953 C-1.8109999895095825,-40.21900177001953 -1.8109999895095825,40.215999603271484 -1.8109999895095825,40.215999603271484 C-1.8109999895095825,41.215999603271484 -0.9990000128746033,42.029998779296875 0,42.029998779296875 C0.9990000128746033,42.029998779296875 1.8109999895095825,41.215999603271484 1.8109999895095825,40.215999603271484 C1.8109999895095825,40.215999603271484 1.8109999895095825,-40.21900177001953 1.8109999895095825,-40.21900177001953 C1.8109999895095825,-41.21799850463867 0.9990000128746033,-42.03099822998047 0,-42.03099822998047z">
            </path>
          </g>
          <g opacity="1" transform="matrix(1,0,0,1,959.4390258789062,912.0549926757812)">
            <path fill="rgb(255,255,255)" fill-opacity="1" d=" M0.0010000000474974513,-53.93600082397461 C-0.9980000257492065,-53.93600082397461 -1.812000036239624,-53.12200164794922 -1.812000036239624,-52.12300109863281 C-1.812000036239624,-52.12300109863281 -1.812000036239624,52.12300109863281 -1.812000036239624,52.12300109863281 C-1.812000036239624,53.12200164794922 -0.9980000257492065,53.93600082397461 0.0010000000474974513,53.93600082397461 C1,53.93600082397461 1.812000036239624,53.12200164794922 1.812000036239624,52.12300109863281 C1.812000036239624,52.12300109863281 1.812000036239624,-52.12300109863281 1.812000036239624,-52.12300109863281 C1.812000036239624,-53.12200164794922 1,-53.93600082397461 0.0010000000474974513,-53.93600082397461z">
            </path>
          </g>
          <g opacity="1" transform="matrix(1,0,0,1,969.9390258789062,919.5750122070312)">
            <path fill="rgb(255,255,255)" fill-opacity="1" d=" M0,-64.38500213623047 C-1,-64.38500213623047 -1.8109999895095825,-63.571998596191406 -1.8109999895095825,-62.573001861572266 C-1.8109999895095825,-62.573001861572266 -1.8109999895095825,62.57500076293945 -1.8109999895095825,62.57500076293945 C-1.8109999895095825,63.57500076293945 -1,64.38500213623047 0,64.38500213623047 C0.9990000128746033,64.38500213623047 1.8109999895095825,63.57500076293945 1.8109999895095825,62.57500076293945 C1.8109999895095825,62.57500076293945 1.8109999895095825,-62.573001861572266 1.8109999895095825,-62.573001861572266 C1.8109999895095825,-63.571998596191406 0.9990000128746033,-64.38500213623047 0,-64.38500213623047z">
            </path>
          </g>
          <g opacity="1" transform="matrix(1,0,0,1,980.4390258789062,898.1909790039062)">
            <path fill="rgb(255,255,255)" fill-opacity="1" d=" M-0.0010000000474974513,-32.117000579833984 C-1.0010000467300415,-32.117000579833984 -1.812000036239624,-31.30500030517578 -1.812000036239624,-30.305999755859375 C-1.812000036239624,-30.305999755859375 -1.812000036239624,30.30500030517578 -1.812000036239624,30.30500030517578 C-1.812000036239624,31.30500030517578 -1.0010000467300415,32.117000579833984 -0.0010000000474974513,32.117000579833984 C0.9980000257492065,32.117000579833984 1.812000036239624,31.30500030517578 1.812000036239624,30.30500030517578 C1.812000036239624,30.30500030517578 1.812000036239624,-30.305999755859375 1.812000036239624,-30.305999755859375 C1.812000036239624,-31.30500030517578 0.9980000257492065,-32.117000579833984 -0.0010000000474974513,-32.117000579833984z">
            </path>
          </g>
          <g opacity="1" transform="matrix(1,0,0,1,990.93701171875,903.0460205078125)">
            <path fill="rgb(255,255,255)" fill-opacity="1" d=" M0.0010000000474974513,-25.572999954223633 C-0.9980000257492065,-25.572999954223633 -1.812000036239624,-24.76099967956543 -1.812000036239624,-23.761999130249023 C-1.812000036239624,-23.761999130249023 -1.812000036239624,23.761999130249023 -1.812000036239624,23.761999130249023 C-1.812000036239624,24.76099967956543 -0.9980000257492065,25.572999954223633 0.0010000000474974513,25.572999954223633 C1,25.572999954223633 1.812000036239624,24.76099967956543 1.812000036239624,23.761999130249023 C1.812000036239624,23.761999130249023 1.812000036239624,-23.761999130249023 1.812000036239624,-23.761999130249023 C1.812000036239624,-24.76099967956543 1,-25.572999954223633 0.0010000000474974513,-25.572999954223633z">
            </path>
          </g>
          <g opacity="1" transform="matrix(1,0,0,1,1001.43701171875,909.4609985351562)">
            <path fill="rgb(255,255,255)" fill-opacity="1" d=" M0,-25.32200050354004 C-0.9990000128746033,-25.32200050354004 -1.8109999895095825,-24.509000778198242 -1.8109999895095825,-23.510000228881836 C-1.8109999895095825,-23.510000228881836 -1.8109999895095825,23.510000228881836 -1.8109999895095825,23.510000228881836 C-1.8109999895095825,24.510000228881836 -0.9990000128746033,25.320999145507812 0,25.320999145507812 C0.9990000128746033,25.320999145507812 1.8109999895095825,24.510000228881836 1.8109999895095825,23.510000228881836 C1.8109999895095825,23.510000228881836 1.8109999895095825,-23.510000228881836 1.8109999895095825,-23.510000228881836 C1.8109999895095825,-24.509000778198242 0.9990000128746033,-25.32200050354004 0,-25.32200050354004z">
            </path>
          </g>
          <g opacity="1" transform="matrix(1,0,0,1,1022.43701171875,901.427001953125)">
            <path fill="rgb(255,255,255)" fill-opacity="1" d=" M0,-4.3429999351501465 C-0.9990000128746033,-4.3429999351501465 -1.8109999895095825,-3.5309998989105225 -1.8109999895095825,-2.5320000648498535 C-1.8109999895095825,-2.5320000648498535 -1.8109999895095825,2.5320000648498535 -1.8109999895095825,2.5320000648498535 C-1.8109999895095825,3.5309998989105225 -0.9990000128746033,4.3429999351501465 0,4.3429999351501465 C0.9990000128746033,4.3429999351501465 1.8109999895095825,3.5309998989105225 1.8109999895095825,2.5320000648498535 C1.8109999895095825,2.5320000648498535 1.8109999895095825,-2.5320000648498535 1.8109999895095825,-2.5320000648498535 C1.8109999895095825,-3.5309998989105225 0.9990000128746033,-4.3429999351501465 0,-4.3429999351501465z">
            </path>
          </g>
          <g opacity="1" transform="matrix(1,0,0,1,1032.93505859375,921.6439819335938)">
            <path fill="rgb(255,255,255)" fill-opacity="1" d=" M0,-24.559999465942383 C-0.9990000128746033,-24.559999465942383 -1.8109999895095825,-23.74799919128418 -1.8109999895095825,-22.749000549316406 C-1.8109999895095825,-22.749000549316406 -1.8109999895095825,22.74799919128418 -1.8109999895095825,22.74799919128418 C-1.8109999895095825,23.74799919128418 -0.9990000128746033,24.559999465942383 0,24.559999465942383 C1,24.559999465942383 1.8109999895095825,23.74799919128418 1.8109999895095825,22.74799919128418 C1.8109999895095825,22.74799919128418 1.8109999895095825,-22.749000549316406 1.8109999895095825,-22.749000549316406 C1.8109999895095825,-23.74799919128418 1,-24.559999465942383 0,-24.559999465942383z">
            </path>
          </g>
          <g opacity="1" transform="matrix(1,0,0,1,1043.43505859375,927.4520263671875)">
            <path fill="rgb(255,255,255)" fill-opacity="1" d=" M0.0010000000474974513,-19.545000076293945 C-0.9980000257492065,-19.545000076293945 -1.812000036239624,-18.731000900268555 -1.812000036239624,-17.73200035095215 C-1.812000036239624,-17.73200035095215 -1.812000036239624,17.733999252319336 -1.812000036239624,17.733999252319336 C-1.812000036239624,18.733999252319336 -0.9980000257492065,19.54599952697754 0.0010000000474974513,19.54599952697754 C1.0010000467300415,19.54599952697754 1.812000036239624,18.733999252319336 1.812000036239624,17.733999252319336 C1.812000036239624,17.733999252319336 1.812000036239624,-17.73200035095215 1.812000036239624,-17.73200035095215 C1.812000036239624,-18.731000900268555 1.0010000467300415,-19.545000076293945 0.0010000000474974513,-19.545000076293945z">
            </path>
          </g>
          <g opacity="1" transform="matrix(1,0,0,1,1053.93603515625,937.239013671875)">
            <path fill="rgb(255,255,255)" fill-opacity="1" d=" M-0.0010000000474974513,-12.359000205993652 C-1.0010000467300415,-12.359000205993652 -1.812000036239624,-11.54699993133545 -1.812000036239624,-10.54800033569336 C-1.812000036239624,-10.54800033569336 -1.812000036239624,10.54800033569336 -1.812000036239624,10.54800033569336 C-1.812000036239624,11.54699993133545 -1.0010000467300415,12.359000205993652 -0.0010000000474974513,12.359000205993652 C0.9990000128746033,12.359000205993652 1.812000036239624,11.54699993133545 1.812000036239624,10.54800033569336 C1.812000036239624,10.54800033569336 1.812000036239624,-10.54800033569336 1.812000036239624,-10.54800033569336 C1.812000036239624,-11.54699993133545 0.9990000128746033,-12.359000205993652 -0.0010000000474974513,-12.359000205993652z">
            </path>
          </g>
          <g opacity="1" transform="matrix(1,0,0,1,1064.43505859375,972.4249877929688)">
            <path fill="rgb(255,255,255)" fill-opacity="1" d=" M-0.0010000000474974513,-30.573999404907227 C-1.0010000467300415,-30.573999404907227 -1.812000036239624,-29.760000228881836 -1.812000036239624,-28.76099967956543 C-1.812000036239624,-28.76099967956543 -1.812000036239624,28.761999130249023 -1.812000036239624,28.761999130249023 C-1.812000036239624,29.761999130249023 -1.0010000467300415,30.573999404907227 -0.0010000000474974513,30.573999404907227 C0.9980000257492065,30.573999404907227 1.812000036239624,29.761999130249023 1.812000036239624,28.761999130249023 C1.812000036239624,28.761999130249023 1.812000036239624,-28.76099967956543 1.812000036239624,-28.76099967956543 C1.812000036239624,-29.760000228881836 0.9980000257492065,-30.573999404907227 -0.0010000000474974513,-30.573999404907227z">
            </path>
          </g>
          <g opacity="1" transform="matrix(1,0,0,1,1074.93505859375,974.677978515625)">
            <path fill="rgb(255,255,255)" fill-opacity="1" d=" M0,-24.520999908447266 C-0.9990000128746033,-24.520999908447266 -1.8109999895095825,-23.708999633789062 -1.8109999895095825,-22.709999084472656 C-1.8109999895095825,-22.709999084472656 -1.8109999895095825,22.70800018310547 -1.8109999895095825,22.70800018310547 C-1.8109999895095825,23.70800018310547 -0.9990000128746033,24.520999908447266 0,24.520999908447266 C1,24.520999908447266 1.8109999895095825,23.70800018310547 1.8109999895095825,22.70800018310547 C1.8109999895095825,22.70800018310547 1.8109999895095825,-22.709999084472656 1.8109999895095825,-22.709999084472656 C1.8109999895095825,-23.708999633789062 1,-24.520999908447266 0,-24.520999908447266z">
            </path>
          </g>
          <g opacity="1" transform="matrix(1,0,0,1,1085.4329833984375,974.9929809570312)">
            <path fill="rgb(255,255,255)" fill-opacity="1" d=" M0,-18.60700035095215 C-0.9990000128746033,-18.60700035095215 -1.8109999895095825,-17.795000076293945 -1.8109999895095825,-16.79599952697754 C-1.8109999895095825,-16.79599952697754 -1.8109999895095825,16.79400062561035 -1.8109999895095825,16.79400062561035 C-1.8109999895095825,17.792999267578125 -0.9990000128746033,18.60700035095215 0,18.60700035095215 C1,18.60700035095215 1.8109999895095825,17.792999267578125 1.8109999895095825,16.79400062561035 C1.8109999895095825,16.79400062561035 1.8109999895095825,-16.79599952697754 1.8109999895095825,-16.79599952697754 C1.8109999895095825,-17.795000076293945 1,-18.60700035095215 0,-18.60700035095215z">
            </path>
          </g>
          <g opacity="1" transform="matrix(1,0,0,1,1095.9329833984375,974.208984375)">
            <path fill="rgb(255,255,255)" fill-opacity="1" d=" M0.0010000000474974513,-16.38800048828125 C-0.9980000257492065,-16.38800048828125 -1.812000036239624,-15.57699966430664 -1.812000036239624,-14.57800006866455 C-1.812000036239624,-14.57800006866455 -1.812000036239624,14.57800006866455 -1.812000036239624,14.57800006866455 C-1.812000036239624,15.57699966430664 -0.9980000257492065,16.38800048828125 0.0010000000474974513,16.38800048828125 C1.0010000467300415,16.38800048828125 1.812000036239624,15.57699966430664 1.812000036239624,14.57800006866455 C1.812000036239624,14.57800006866455 1.812000036239624,-14.57800006866455 1.812000036239624,-14.57800006866455 C1.812000036239624,-15.57699966430664 1.0010000467300415,-16.38800048828125 0.0010000000474974513,-16.38800048828125z">
            </path>
          </g>
          <g opacity="1" transform="matrix(1,0,0,1,1106.4320068359375,968.0130004882812)">
            <path fill="rgb(255,255,255)" fill-opacity="1" d=" M0,-9.333000183105469 C-0.9990000128746033,-9.333000183105469 -1.8109999895095825,-8.522000312805176 -1.8109999895095825,-7.5229997634887695 C-1.8109999895095825,-7.5229997634887695 -1.8109999895095825,7.5229997634887695 -1.8109999895095825,7.5229997634887695 C-1.8109999895095825,8.522000312805176 -0.9990000128746033,9.333000183105469 0,9.333000183105469 C1,9.333000183105469 1.8109999895095825,8.522000312805176 1.8109999895095825,7.5229997634887695 C1.8109999895095825,7.5229997634887695 1.8109999895095825,-7.5229997634887695 1.8109999895095825,-7.5229997634887695 C1.8109999895095825,-8.522000312805176 1,-9.333000183105469 0,-9.333000183105469z">
            </path>
          </g>
          <g opacity="1" transform="matrix(1,0,0,1,938.4409790039062,874.2999877929688)">
            <path fill="rgb(255,255,255)" fill-opacity="1" d=" M0,-6.796999931335449 C-0.9990000128746033,-6.796999931335449 -1.8109999895095825,-5.982999801635742 -1.8109999895095825,-4.984000205993652 C-1.8109999895095825,-4.984000205993652 -1.8109999895095825,4.984000205993652 -1.8109999895095825,4.984000205993652 C-1.8109999895095825,5.984000205993652 -0.9990000128746033,6.796999931335449 0,6.796999931335449 C0.9990000128746033,6.796999931335449 1.8109999895095825,5.984000205993652 1.8109999895095825,4.984000205993652 C1.8109999895095825,4.984000205993652 1.8109999895095825,-4.984000205993652 1.8109999895095825,-4.984000205993652 C1.8109999895095825,-5.982999801635742 0.9990000128746033,-6.796999931335449 0,-6.796999931335449z">
            </path>
          </g>
        </g>
      </g>
    </g>
    <g clip-path="url(#__lottie_element_205)" style="display: block;" transform="matrix(1.3361998796463013,0,0,1.3361998796463013,-1159.5518798828125,-979.8018798828125)" opacity="1">
      <g mask="url(#__lottie_element_226)">
        <g style="display: block;" transform="matrix(1,0,0,1,0,0)" opacity="1">
          <g opacity="1" transform="matrix(1,0,0,1,1011.2839965820312,959.0889892578125)">
            <path fill="rgb(72,178,145)" fill-opacity="1" d=" M47.61000061035156,-2.7100000381469727 C47.237998962402344,-3.3440001010894775 46.57600021362305,-3.6710000038146973 45.854000091552734,-3.6540000438690186 C40.54899978637695,-3.308000087738037 36.474998474121094,-4.559000015258789 32.52299880981445,-5.763000011444092 C28.14299964904785,-7.098999977111816 24.00200080871582,-8.354999542236328 19.084999084472656,-6.925000190734863 C13.751999855041504,-5.368000030517578 9.772000312805176,-1.2799999713897705 8.696999549865723,3.743000030517578 C8.62600040435791,4.084000110626221 8.739999771118164,4.427999973297119 8.99899959564209,4.670000076293945 C9.274999618530273,4.922999858856201 9.67199993133545,5.014999866485596 10.031999588012695,4.914000034332275 C18.0939998626709,2.5429999828338623 22.29800033569336,3.9830000400543213 24.089000701904297,5.051000118255615 C24.816999435424805,5.486999988555908 25.273000717163086,5.931000232696533 25.516000747680664,6.241000175476074 C24.22599983215332,6.050000190734863 22.889999389648438,5.9710001945495605 21.5310001373291,6 C21.49799919128418,5.98799991607666 21.43000030517578,6.001999855041504 21.43000030517578,5.984000205993652 C21.343000411987305,5.986000061035156 21.259000778198242,5.993000030517578 21.172000885009766,6.001999855041504 C21.117000579833984,6.006999969482422 21.062000274658203,6.01200008392334 21.0049991607666,6.013999938964844 C20.576000213623047,6.034999847412109 20.145999908447266,6.066999912261963 19.72599983215332,6.111999988555908 C19.488000869750977,6.13700008392334 19.25200080871582,6.164999961853027 19.014999389648438,6.199999809265137 C18.55299949645996,6.265999794006348 18.09600067138672,6.3480000495910645 17.64900016784668,6.445000171661377 C17.64900016784668,6.445000171661377 17.145999908447266,6.551000118255615 17.145999908447266,6.551000118255615 C17.12299919128418,6.556000232696533 17.106000900268555,6.563000202178955 17.083999633789062,6.567999839782715 C10.960000038146973,7.817999839782715 5.736000061035156,11.538999557495117 2.4639999866485596,16.6299991607666 C2.4639999866485596,16.6299991607666 2.4639999866485596,-30.55900001525879 2.4639999866485596,-30.55900001525879 C3.990999937057495,-32.132999420166016 7.620999813079834,-35.87799835205078 7.676000118255615,-35.9640007019043 C8.194999694824219,-35.82400131225586 8.722999572753906,-35.729000091552734 9.256999969482422,-35.729000091552734 C10.220000267028809,-35.729000091552734 11.187999725341797,-35.952999114990234 12.08899974822998,-36.395999908447266 C14.345000267028809,-37.50600051879883 15.366000175476074,-39.78799819946289 16.356000900268555,-41.99300003051758 C16.98200035095215,-43.38399887084961 17.625999450683594,-44.821998596191406 18.575000762939453,-45.97100067138672 C18.80900001525879,-46.25899887084961 18.874000549316406,-46.63600158691406 18.7450008392334,-46.97999954223633 C18.618999481201172,-47.3129997253418 18.332000732421875,-47.547000885009766 17.979000091552734,-47.60300064086914 C13.25,-48.35100173950195 9.630999565124512,-48.12200164794922 7.201000213623047,-46.93000030517578 C5.067999839782715,-45.88199996948242 4.394000053405762,-44.347999572753906 4.515999794006348,-42.141998291015625 C4.534999847412109,-41.79600143432617 4.735000133514404,-41.499000549316406 5.054999828338623,-41.35200119018555 C5.4039998054504395,-41.19599914550781 5.814000129699707,-41.22800064086914 6.117000102996826,-41.47600173950195 C7.218999862670898,-42.37699890136719 9.022000312805176,-42.30400085449219 9.890999794006348,-42.051998138427734 C8.156999588012695,-41.23699951171875 6.63100004196167,-39.939998626708984 6.000999927520752,-39.367000579833984 C5.706999778747559,-39.125 5.4120001792907715,-38.83100128173828 5.10699987411499,-38.47700119018555 C4.978000164031982,-38.33399963378906 4.859000205993652,-38.196998596191406 4.776000022888184,-38.08300018310547 C4.769000053405762,-38.07500076293945 4.769000053405762,-38.07500076293945 4.76200008392334,-38.06700134277344 C4.76200008392334,-38.06700134277344 2.4639999866485596,-35.82400131225586 2.4639999866485596,-35.82400131225586 C2.4639999866485596,-35.82400131225586 2.4639999866485596,-60.194000244140625 2.4639999866485596,-60.194000244140625 C2.4639999866485596,-61.19300079345703 1.649999976158142,-62.005001068115234 0.6510000228881836,-62.005001068115234 C-0.3490000069141388,-62.005001068115234 -1.159999966621399,-61.19300079345703 -1.159999966621399,-60.194000244140625 C-1.159999966621399,-60.194000244140625 -1.159999966621399,-6.4070000648498535 -1.159999966621399,-6.4070000648498535 C-3.9639999866485596,-10.767999649047852 -8.204000473022461,-14.121999740600586 -13.211999893188477,-15.779000282287598 C-16.214000701904297,-17.19700050354004 -19.766000747680664,-17.410999298095703 -22.93600082397461,-16.47800064086914 C-21.867000579833984,-18.531999588012695 -20.40399932861328,-19.309999465942383 -14.604999542236328,-18.718000411987305 C-13.861000061035156,-18.593000411987305 -13.180999755859375,-19.367000579833984 -13.454000473022461,-20.08799934387207 C-15.437000274658203,-26.923999786376953 -23.36199951171875,-26.549999237060547 -28.298999786376953,-23.773000717163086 C-30.759000778198242,-22.690000534057617 -33.301998138427734,-21.56800079345703 -36.73899841308594,-21.364999771118164 C-37.75400161743164,-21.344999313354492 -38.380001068115234,-20.034000396728516 -37.6879997253418,-19.264999389648438 C-30.52199935913086,-10.758000373840332 -19.849000930786133,-3.2309999465942383 -13.194000244140625,-11.907999992370605 C-6.151000022888184,-9.064000129699707 -1.159999966621399,-2.1670000553131104 -1.159999966621399,5.881999969482422 C-1.159999966621399,5.881999969482422 -1.159999966621399,47.65399932861328 -1.159999966621399,47.65399932861328 C-4.133999824523926,43.02899932861328 -8.723999977111816,39.54999923706055 -14.135000228881836,38.01499938964844 C-16.555999755859375,36.85499954223633 -24.142000198364258,36.654998779296875 -27,37.10200119018555 C-24.790000915527344,35.50699996948242 -21.033000946044922,33.52000045776367 -16.57699966430664,34.180999755859375 C-15.972999572753906,34.27299880981445 -15.380999565124512,34.012001037597656 -15.034000396728516,33.50299835205078 C-14.701000213623047,33.013999938964844 -14.677000045776367,32.400001525878906 -14.967000007629395,31.895000457763672 C-17.486000061035156,27.513999938964844 -22.72800064086914,25.031999588012695 -28.082000732421875,25.749000549316406 C-33.58300018310547,26.47800064086914 -40.02299880981445,30.211999893188477 -47.21900177001953,36.84700012207031 C-47.763999938964844,37.35300064086914 -47.99399948120117,38.07699966430664 -47.82899856567383,38.79100036621094 C-47.66400146484375,39.516998291015625 -47.12799835205078,40.08300018310547 -46.39899826049805,40.29999923706055 C-43.47200012207031,41.18000030517578 -40.729000091552734,42.90299987792969 -38.08300018310547,44.57099914550781 C-29.361000061035156,51.12300109863281 -19.225000381469727,51.303001403808594 -14.541000366210938,41.65999984741211 C-6.791999816894531,44.12699890136719 -1.159999966621399,51.38800048828125 -1.159999966621399,59.94300079345703 C-1.159999966621399,59.94300079345703 -1.159999966621399,60.19200134277344 -1.159999966621399,60.19200134277344 C-1.159999966621399,61.191001892089844 -0.3490000069141388,62.00400161743164 0.6510000228881836,62.00400161743164 C1.649999976158142,62.00400161743164 2.4639999866485596,61.191001892089844 2.4639999866485596,60.19200134277344 C2.4639999866485596,60.19200134277344 2.4639999866485596,28.922000885009766 2.4639999866485596,28.922000885009766 C2.4639999866485596,22.549999237060547 5.5980000495910645,16.910999298095703 10.390999794006348,13.418000221252441 C12.722000122070312,17.333999633789062 16.797000885009766,19.5049991607666 21.410999298095703,19.5049991607666 C22.863000869750977,19.5049991607666 24.371000289916992,19.29199981689453 25.889999389648438,18.847000122070312 C33.084999084472656,16.753000259399414 40.78099822998047,9.843999862670898 47.5620002746582,-0.6060000061988831 C47.97600173950195,-1.2450000047683716 47.99300003051758,-2.052000045776367 47.61000061035156,-2.7100000381469727z">
            </path>
          </g>
        </g>
      </g>
    </g>
    <g filter="url(#__lottie_element_210)" style="display: block;" transform="matrix(1.3361998796463013,0,0,1.3361998796463013,-1159.5526123046875,-979.8020629882812)" opacity="1">
      <g opacity="1" transform="matrix(1,0,0,1,988.5189819335938,1002.6069946289062)">
        <path fill="rgb(72,178,145)" fill-opacity="1" d=" M21.604999542236328,4.13700008392334 C18.631000518798828,-0.48899999260902405 14.041000366210938,-3.9670000076293945 8.630000114440918,-5.502999782562256 C6.208000183105469,-6.6620001792907715 -1.3769999742507935,-6.861999988555908 -4.234000205993652,-6.414999961853027 C-2.0250000953674316,-8.010000228881836 1.7319999933242798,-9.996999740600586 6.189000129699707,-9.336000442504883 C6.791999816894531,-9.244000434875488 7.385000228881836,-9.505000114440918 7.730999946594238,-10.015000343322754 C8.064000129699707,-10.503000259399414 8.088000297546387,-11.116999626159668 7.797999858856201,-11.623000144958496 C5.2789998054504395,-16.003999710083008 0.03700000047683716,-18.486000061035156 -5.316999912261963,-17.76799964904785 C-10.817999839782715,-17.040000915527344 -17.257999420166016,-13.305999755859375 -24.452999114990234,-6.670000076293945 C-24.999000549316406,-6.164999961853027 -25.229000091552734,-5.440000057220459 -25.06399917602539,-4.72599983215332 C-24.898000717163086,-4.000999927520752 -24.363000869750977,-3.434000015258789 -23.634000778198242,-3.2170000076293945 C-20.707000732421875,-2.3369998931884766 -17.96500015258789,-0.6150000095367432 -15.317999839782715,1.0540000200271606 C-6.5970001220703125,7.605999946594238 3.5399999618530273,7.785999774932861 8.225000381469727,-1.8580000400543213 C15.972999572753906,0.6100000143051147 21.604999542236328,7.870999813079834 21.604999542236328,16.426000595092773 C21.604999542236328,16.426000595092773 21.604999542236328,16.673999786376953 21.604999542236328,16.673999786376953 C21.604999542236328,17.673999786376953 22.91699981689453,14.861000061035156 23.916000366210938,14.861000061035156 C24.916000366210938,14.861000061035156 23.854000091552734,11.923999786376953 23.854000091552734,10.923999786376953 C23.854000091552734,10.923999786376953 23.104000091552734,8.230999946594238 23.104000091552734,8.230999946594238 C23.104000091552734,8.230999946594238 21.604999542236328,4.135000228881836 21.604999542236328,4.135000228881836 C21.604999542236328,4.135000228881836 21.604999542236328,4.13700008392334 21.604999542236328,4.13700008392334z">
        </path>
      </g>
    </g>
    <g style="display: block;" transform="matrix(1.3361998796463013,0,0,1.3361998796463013,-1159.5518798828125,-979.8015747070312)" opacity="1">
      <g opacity="1" transform="matrix(1,0,0,1,1034.7010498046875,970.5859985351562)">
        <path fill="rgb(72,178,145)" fill-opacity="1" d=" M24.19300079345703,-14.206000328063965 C23.820999145507812,-14.84000015258789 23.159000396728516,-15.166999816894531 22.437000274658203,-15.149999618530273 C17.131999969482422,-14.805000305175781 13.057999610900879,-16.05500030517578 9.105999946594238,-17.259000778198242 C4.72599983215332,-18.594999313354492 0.5849999785423279,-19.851999282836914 -4.331999778747559,-18.422000885009766 C-9.664999961853027,-16.864999771118164 -13.645000457763672,-12.776000022888184 -14.720000267028809,-7.752999782562256 C-14.791000366210938,-7.4120001792907715 -14.677000045776367,-7.067999839782715 -14.418000221252441,-6.826000213623047 C-14.142000198364258,-6.572999954223633 -13.744999885559082,-6.480999946594238 -13.385000228881836,-6.581999778747559 C-5.322999954223633,-8.95300006866455 -1.11899995803833,-7.513000011444092 0.671999990940094,-6.445000171661377 C1.399999976158142,-6.008999824523926 1.8559999465942383,-5.565000057220459 2.0989999771118164,-5.255000114440918 C0.8090000152587891,-5.446000099182129 -0.5260000228881836,-5.525000095367432 -1.8849999904632568,-5.495999813079834 C-1.9179999828338623,-5.507999897003174 -1.9869999885559082,-5.49399995803833 -1.9869999885559082,-5.51200008392334 C-2.0739998817443848,-5.510000228881836 -2.1579999923706055,-5.504000186920166 -2.244999885559082,-5.494999885559082 C-2.299999952316284,-5.489999771118164 -2.3540000915527344,-5.484000205993652 -2.4110000133514404,-5.48199987411499 C-2.8399999141693115,-5.460999965667725 -3.2709999084472656,-5.428999900817871 -3.690999984741211,-5.383999824523926 C-3.928999900817871,-5.359000205993652 -4.164999961853027,-5.331999778747559 -4.4019999504089355,-5.296999931335449 C-4.863999843597412,-5.230999946594238 -5.321000099182129,-5.1479997634887695 -5.76800012588501,-5.051000118255615 C-5.76800012588501,-5.051000118255615 -6.270999908447266,-4.945000171661377 -6.270999908447266,-4.945000171661377 C-6.294000148773193,-4.940000057220459 -6.310999870300293,-4.933000087738037 -6.333000183105469,-4.927999973297119 C-12.456999778747559,-3.677999973297119 -17.680999755859375,0.0430000014603138 -20.952999114990234,5.133999824523926 C-20.952999114990234,5.133999824523926 -22.45199966430664,9.869999885559082 -22.45199966430664,9.869999885559082 C-22.45199966430664,9.869999885559082 -23.07699966430664,12.35200023651123 -23.07699966430664,12.35200023651123 C-23.07699966430664,12.35200023651123 -22.202999114990234,13.97700023651123 -22.202999114990234,13.97700023651123 C-22.202999114990234,13.97700023651123 -20.952999114990234,17.426000595092773 -20.952999114990234,17.426000595092773 C-20.952999114990234,11.053999900817871 -17.819000244140625,5.414999961853027 -13.026000022888184,1.9220000505447388 C-10.694999694824219,5.8379998207092285 -6.61899995803833,8.008999824523926 -2.005000114440918,8.008999824523926 C-0.5529999732971191,8.008999824523926 0.9539999961853027,7.796000003814697 2.4730000495910645,7.35099983215332 C9.668000221252441,5.256999969482422 17.364999771118164,-1.6519999504089355 24.145999908447266,-12.10200023651123 C24.559999465942383,-12.741000175476074 24.576000213623047,-13.54800033569336 24.19300079345703,-14.206000328063965z">
        </path>
      </g>
    </g>
    <g style="display: block;" transform="matrix(1.3361998796463013,0,0,1.3361998796463013,-1159.552490234375,-979.8020629882812)" opacity="1">
      <g opacity="1" transform="matrix(1,0,0,1,993.3270263671875,949.9669799804688)">
        <path fill="rgb(72,178,145)" fill-opacity="1" d=" M18.172000885009766,7.322999954223633 C18.172000885009766,7.322999954223633 16.79800033569336,2.7160000801086426 16.79800033569336,2.7160000801086426 C13.994000434875488,-1.6460000276565552 9.753999710083008,-4.999000072479248 4.745999813079834,-6.6570000648498535 C1.74399995803833,-8.074999809265137 -1.8079999685287476,-8.289999961853027 -4.978000164031982,-7.35699987411499 C-3.9089999198913574,-9.41100025177002 -2.446000099182129,-10.187000274658203 3.3529999256134033,-9.595999717712402 C4.0970001220703125,-9.470999717712402 4.7769999504089355,-10.244999885559082 4.504000186920166,-10.965999603271484 C2.5209999084472656,-17.802000045776367 -5.4039998054504395,-17.42799949645996 -10.340999603271484,-14.651000022888184 C-12.800999641418457,-13.567999839782715 -15.343999862670898,-12.444999694824219 -18.7810001373291,-12.243000030517578 C-19.79599952697754,-12.222999572753906 -20.422000885009766,-10.913000106811523 -19.729999542236328,-10.142999649047852 C-12.564000129699707,-1.6369999647140503 -1.8910000324249268,5.890999794006348 4.763999938964844,-2.7850000858306885 C11.807000160217285,0.05900000035762787 16.79800033569336,6.954999923706055 16.79800033569336,15.005000114440918 C16.79800033569336,15.005000114440918 18.17300033569336,10.36400032043457 18.17300033569336,10.36400032043457 C18.17300033569336,10.36400032043457 18.672000885009766,9.177000045776367 18.672000885009766,9.177000045776367 C18.672000885009766,9.177000045776367 18.172000885009766,7.322999954223633 18.172000885009766,7.322999954223633z">
        </path>
      </g>
    </g>
    <g style="display: block;" transform="matrix(1.3361998796463013,0,0,1.3361998796463013,-1159.5509033203125,-979.8026733398438)" opacity="1">
      <g opacity="1" transform="matrix(1,0,0,1,1020.1409912109375,930.8699951171875)">
        <path fill="rgb(72,178,145)" fill-opacity="1" d=" M-6.39300012588501,-2.3399999141693115 C-4.866000175476074,-3.9140000343322754 -1.2359999418258667,-7.658999919891357 -1.180999994277954,-7.744999885559082 C-0.6620000004768372,-7.605000019073486 -0.13300000131130219,-7.510000228881836 0.4009999930858612,-7.510000228881836 C1.3639999628067017,-7.510000228881836 2.3310000896453857,-7.734000205993652 3.2320001125335693,-8.177000045776367 C5.48799991607666,-9.286999702453613 6.510000228881836,-11.569000244140625 7.5,-13.77400016784668 C8.12600040435791,-15.164999961853027 8.770000457763672,-16.60300064086914 9.718999862670898,-17.753000259399414 C9.95300006866455,-18.040000915527344 10.015999794006348,-18.41699981689453 9.88700008392334,-18.76099967956543 C9.76099967956543,-19.0939998626709 9.475000381469727,-19.327999114990234 9.121999740600586,-19.384000778198242 C4.39300012588501,-20.131999969482422 0.7739999890327454,-19.902999877929688 -1.656000018119812,-18.711000442504883 C-3.7890000343322754,-17.663000106811523 -4.4629998207092285,-16.128999710083008 -4.341000080108643,-13.92300033569336 C-4.322000026702881,-13.57699966430664 -4.122000217437744,-13.279999732971191 -3.802000045776367,-13.133000373840332 C-3.453000068664551,-12.97700023651123 -3.0429999828338623,-13.008999824523926 -2.740000009536743,-13.256999969482422 C-1.6380000114440918,-14.157999992370605 0.16500000655651093,-14.085000038146973 1.034000039100647,-13.833000183105469 C-0.699999988079071,-13.017999649047852 -2.2260000705718994,-11.720999717712402 -2.8559999465942383,-11.14799976348877 C-3.1500000953674316,-10.906000137329102 -3.444999933242798,-10.61299991607666 -3.75,-10.258000373840332 C-3.878999948501587,-10.114999771118164 -3.997999906539917,-9.977999687194824 -4.080999851226807,-9.86400032043457 C-4.0879998207092285,-9.855999946594238 -4.0879998207092285,-9.855999946594238 -4.09499979019165,-9.847999572753906 C-4.09499979019165,-9.847999572753906 -6.39300012588501,-7.605000019073486 -6.39300012588501,-7.605000019073486 C-6.39300012588501,-7.605000019073486 -6.39300012588501,-7.618000030517578 -6.39300012588501,-7.618000030517578 C-6.39300012588501,-7.618000030517578 -7.892000198364258,-5.910999774932861 -7.892000198364258,-5.910999774932861 C-7.892000198364258,-5.910999774932861 -7.892000198364258,-3.6019999980926514 -7.892000198364258,-3.6019999980926514 C-7.892000198364258,-3.6019999980926514 -7.51800012588501,-0.36899998784065247 -7.51800012588501,-0.36899998784065247 C-7.51800012588501,-0.36899998784065247 -6.39300012588501,-2.3399999141693115 -6.39300012588501,-2.3399999141693115z">
        </path>
      </g>
    </g>
    <g style="display: none;">
      <rect width="100" height="100" fill="#ffffff">
      </rect>
    </g>
  </g>
</svg>